<?xml version="1.0" encoding="UTF-8" standalone="no"?>
<!DOCTYPE svg PUBLIC "-//W3C//DTD SVG 1.1//EN"
 "http://www.w3.org/Graphics/SVG/1.1/DTD/svg11.dtd">
<!-- Generated by graphviz version 7.0.0 (20221023.0053)
 -->
<!-- Title: G Pages: 1 -->
<svg width="734pt" height="585pt"
 viewBox="0.00 0.00 733.52 585.00" xmlns="http://www.w3.org/2000/svg" xmlns:xlink="http://www.w3.org/1999/xlink">
<g id="graph0" class="graph" transform="scale(1 1) rotate(0) translate(4 581)">
<title>G</title>
<polygon fill="white" stroke="none" points="-4,4 -4,-581 729.52,-581 729.52,4 -4,4"/>
<g id="clust1" class="cluster">
<title>cluster1_0</title>
<polygon fill="#ffffff" stroke="black" points="73.52,-169 73.52,-533 387.52,-533 387.52,-169 73.52,-169"/>
<text text-anchor="middle" x="230.52" y="-517.8" font-family="Times,serif" font-size="14.00">./internal/</text>
</g>
<g id="clust2" class="cluster">
<title>cluster4_0</title>
<polygon fill="#f0f0f0" stroke="black" points="149.52,-427 149.52,-502 379.52,-502 379.52,-427 149.52,-427"/>
<text text-anchor="middle" x="264.52" y="-486.8" font-family="Times,serif" font-size="14.00">render/</text>
</g>
<g id="clust3" class="cluster">
<title>cluster10_0</title>
<polygon fill="#ffffff" stroke="black" points="395.52,-305 395.52,-419 593.52,-419 593.52,-305 395.52,-305"/>
<text text-anchor="middle" x="494.52" y="-403.8" font-family="Times,serif" font-size="14.00">github.com/</text>
</g>
<g id="clust4" class="cluster">
<title>cluster10_1</title>
<polygon fill="#f0f0f0" stroke="black" points="515.52,-313 515.52,-388 585.52,-388 585.52,-313 515.52,-313"/>
<text text-anchor="middle" x="550.52" y="-372.8" font-family="Times,serif" font-size="14.00">linqgo/</text>
</g>
<g id="clust5" class="cluster">
<title>cluster11_0</title>
<polygon fill="#f0f0f0" stroke="black" points="403.52,-313 403.52,-388 507.52,-388 507.52,-313 403.52,-313"/>
<text text-anchor="middle" x="455.52" y="-372.8" font-family="Times,serif" font-size="14.00">mattn/</text>
</g>
<g id="clust6" class="cluster">
<title>cluster12_0</title>
<polygon fill="#ffffff" stroke="black" points="61.52,-8 61.52,-161 360.52,-161 360.52,-8 61.52,-8"/>
<text text-anchor="middle" x="211.02" y="-145.8" font-family="Times,serif" font-size="14.00">golang.org/</text>
</g>
<g id="clust7" class="cluster">
<title>cluster12_1</title>
<polygon fill="#f0f0f0" stroke="black" points="69.52,-16 69.52,-130 352.52,-130 352.52,-16 69.52,-16"/>
<text text-anchor="middle" x="211.02" y="-114.8" font-family="Times,serif" font-size="14.00">x/</text>
</g>
<g id="clust8" class="cluster">
<title>cluster12_2</title>
<polygon fill="#e1e1e1" stroke="black" points="77.52,-24 77.52,-99 240.52,-99 240.52,-24 77.52,-24"/>
<text text-anchor="middle" x="159.02" y="-83.8" font-family="Times,serif" font-size="14.00">exp/</text>
</g>
<g id="clust9" class="cluster">
<title>cluster14_0</title>
<polygon fill="#e1e1e1" stroke="black" points="248.52,-24 248.52,-99 344.52,-99 344.52,-24 248.52,-24"/>
<text text-anchor="middle" x="296.52" y="-83.8" font-family="Times,serif" font-size="14.00">mod/</text>
</g>
<!-- 0 -->
<g id="node1" class="node">
<title>0</title>
<ellipse fill="white" stroke="black" stroke-width="3" cx="231.52" cy="-559" rx="27" ry="18"/>
<text text-anchor="middle" x="231.52" y="-555.3" font-family="Helvetica,sans-Serif" font-size="14.00">.</text>
</g>
<!-- 1 -->
<g id="node2" class="node">
<title>1</title>
<ellipse fill="white" stroke="black" stroke-width="3" cx="244.52" cy="-339" rx="33.29" ry="18"/>
<text text-anchor="middle" x="244.52" y="-335.3" font-family="Helvetica,sans-Serif" font-size="14.00">graph</text>
</g>
<!-- 0&#45;&gt;1 -->
<g id="edge1" class="edge">
<title>0&#45;&gt;1</title>
<path fill="none" stroke="black" d="M203.15,-557.78C162.04,-556.78 89,-552.27 72.52,-533 41.91,-497.19 40.44,-461.5 72.52,-427 89.21,-409.05 160.89,-430.51 182.52,-419 203.75,-407.7 220.11,-385.65 230.67,-367.7"/>
<polygon fill="black" stroke="black" points="233.68,-369.49 235.48,-359.05 227.56,-366.09 233.68,-369.49"/>
</g>
<!-- 2 -->
<g id="node3" class="node">
<title>2</title>
<ellipse fill="white" stroke="black" stroke-width="3" cx="138.52" cy="-339" rx="35.19" ry="18"/>
<text text-anchor="middle" x="138.52" y="-335.3" font-family="Helvetica,sans-Serif" font-size="14.00">match</text>
</g>
<!-- 0&#45;&gt;2 -->
<g id="edge2" class="edge">
<title>0&#45;&gt;2</title>
<path fill="none" stroke="black" d="M203.24,-558.55C156.15,-558.79 64.8,-556.17 44.52,-533 13.5,-497.55 25.66,-470.17 44.52,-427 56.94,-398.6 83.7,-375.34 105.5,-360.04"/>
<polygon fill="black" stroke="black" points="107.2,-363.11 113.54,-354.62 103.29,-357.31 107.2,-363.11"/>
</g>
<!-- 3 -->
<g id="node4" class="node">
<title>3</title>
<ellipse fill="white" stroke="black" stroke-width="3" cx="340.52" cy="-267" rx="38.99" ry="18"/>
<text text-anchor="middle" x="340.52" y="-263.3" font-family="Helvetica,sans-Serif" font-size="14.00">pathutil</text>
</g>
<!-- 0&#45;&gt;3 -->
<g id="edge3" class="edge">
<title>0&#45;&gt;3</title>
<path fill="none" stroke="black" d="M259.7,-557.69C331.38,-555.14 519.94,-537.03 589.52,-419 615.25,-375.35 622.61,-343.37 589.52,-305 564.55,-276.04 457.37,-269.38 392.04,-268.07"/>
<polygon fill="black" stroke="black" points="392.32,-264.58 382.27,-267.91 392.21,-271.57 392.32,-264.58"/>
</g>
<!-- 4 -->
<g id="node5" class="node">
<title>4</title>
<ellipse fill="white" stroke="black" stroke-width="3" cx="344.52" cy="-453" rx="27" ry="18"/>
<text text-anchor="middle" x="344.52" y="-449.3" font-family="Helvetica,sans-Serif" font-size="14.00">dot</text>
</g>
<!-- 0&#45;&gt;4 -->
<g id="edge4" class="edge">
<title>0&#45;&gt;4</title>
<path fill="none" stroke="black" d="M259.21,-554.63C275.25,-551.42 294.89,-545.17 308.52,-533 323.14,-519.95 332.2,-499.79 337.57,-483.09"/>
<polygon fill="black" stroke="black" points="340.88,-484.26 340.3,-473.68 334.16,-482.3 340.88,-484.26"/>
</g>
<!-- 5 -->
<g id="node6" class="node">
<title>5</title>
<ellipse fill="white" stroke="black" stroke-width="3" cx="191.52" cy="-453" rx="34.39" ry="18"/>
<text text-anchor="middle" x="191.52" y="-449.3" font-family="Helvetica,sans-Serif" font-size="14.00">edges</text>
</g>
<!-- 0&#45;&gt;5 -->
<g id="edge5" class="edge">
<title>0&#45;&gt;5</title>
<path fill="none" stroke="black" d="M224.74,-540.36C218.68,-524.62 209.71,-501.27 202.61,-482.82"/>
<polygon fill="black" stroke="black" points="205.88,-481.57 199.02,-473.49 199.34,-484.08 205.88,-481.57"/>
</g>
<!-- 6 -->
<g id="node7" class="node">
<title>6</title>
<ellipse fill="white" stroke="black" stroke-width="3" cx="271.52" cy="-453" rx="27.9" ry="18"/>
<text text-anchor="middle" x="271.52" y="-449.3" font-family="Helvetica,sans-Serif" font-size="14.00">tsort</text>
</g>
<!-- 0&#45;&gt;6 -->
<g id="edge6" class="edge">
<title>0&#45;&gt;6</title>
<path fill="none" stroke="black" d="M238.31,-540.36C244.43,-524.45 253.54,-500.76 260.67,-482.22"/>
<polygon fill="black" stroke="black" points="263.84,-483.73 264.16,-473.14 257.31,-481.22 263.84,-483.73"/>
</g>
<!-- 9 -->
<g id="node10" class="node">
<title>9</title>
<ellipse fill="white" stroke="black" stroke-width="3" cx="110.52" cy="-453" rx="28.7" ry="18"/>
<text text-anchor="middle" x="110.52" y="-449.3" font-family="Helvetica,sans-Serif" font-size="14.00">walk</text>
</g>
<!-- 0&#45;&gt;9 -->
<g id="edge7" class="edge">
<title>0&#45;&gt;9</title>
<path fill="none" stroke="black" d="M203.45,-555.9C185.06,-553.19 161.56,-547.02 145.52,-533 130.84,-520.17 122.05,-499.99 116.94,-483.25"/>
<polygon fill="black" stroke="black" points="120.37,-482.52 114.37,-473.79 113.62,-484.36 120.37,-482.52"/>
</g>
<!-- 14 -->
<g id="node15" class="node">
<title>14</title>
<ellipse fill="#f8f8f8" stroke="gray" stroke-width="0.62" cx="296.52" cy="-50" rx="39.79" ry="18"/>
<text text-anchor="middle" x="296.52" y="-46.3" font-family="Helvetica,sans-Serif" font-size="14.00" fill="gray">modfile</text>
</g>
<!-- 0&#45;&gt;14 -->
<g id="edge8" class="edge">
<title>0&#45;&gt;14</title>
<path fill="none" stroke="black" d="M259.58,-557.84C322.29,-557.12 471.85,-553.26 517.52,-533 632.8,-481.85 725.52,-466.11 725.52,-340 725.52,-340 725.52,-340 725.52,-266 725.52,-98.44 460.71,-61.46 347.2,-53.3"/>
<polygon fill="black" stroke="black" points="347.45,-49.81 337.24,-52.64 346.99,-56.8 347.45,-49.81"/>
</g>
<!-- 7 -->
<g id="node8" class="node">
<title>7</title>
<ellipse fill="white" stroke="black" stroke-width="3" cx="282.52" cy="-195" rx="27" ry="18"/>
<text text-anchor="middle" x="282.52" y="-191.3" font-family="Helvetica,sans-Serif" font-size="14.00">set</text>
</g>
<!-- 1&#45;&gt;7 -->
<g id="edge9" class="edge">
<title>1&#45;&gt;7</title>
<path fill="none" stroke="black" d="M249.41,-319.73C255.83,-295.76 267.15,-253.44 274.75,-225.06"/>
<polygon fill="black" stroke="black" points="278.06,-226.23 277.26,-215.67 271.3,-224.42 278.06,-226.23"/>
</g>
<!-- 2&#45;&gt;7 -->
<g id="edge10" class="edge">
<title>2&#45;&gt;7</title>
<path fill="none" stroke="black" d="M155.04,-321.71C180.59,-296.52 229.8,-248 259.04,-219.16"/>
<polygon fill="black" stroke="black" points="261.33,-221.81 265.99,-212.3 256.42,-216.83 261.33,-221.81"/>
</g>
<!-- 2&#45;&gt;14 -->
<g id="edge11" class="edge">
<title>2&#45;&gt;14</title>
<path fill="none" stroke="black" d="M148.02,-320.44C157.87,-302.37 173.87,-273.48 188.52,-249 212.33,-209.22 222.13,-201.59 244.52,-161 259.8,-133.31 274.99,-100.39 284.98,-77.82"/>
<polygon fill="black" stroke="black" points="288.15,-79.3 288.96,-68.73 281.74,-76.49 288.15,-79.3"/>
</g>
<!-- 3&#45;&gt;7 -->
<g id="edge12" class="edge">
<title>3&#45;&gt;7</title>
<path fill="none" stroke="black" d="M326.48,-249.05C319.37,-240.47 310.6,-229.89 302.77,-220.44"/>
<polygon fill="black" stroke="black" points="305.68,-218.46 296.61,-212.99 300.29,-222.93 305.68,-218.46"/>
</g>
<!-- 4&#45;&gt;1 -->
<g id="edge13" class="edge">
<title>4&#45;&gt;1</title>
<path fill="none" stroke="black" d="M326.42,-438.07C320.86,-434.17 314.61,-430.15 308.52,-427 299.29,-422.22 294.38,-425.82 286.52,-419 271.14,-405.63 260.49,-385.2 253.76,-368.47"/>
<polygon fill="black" stroke="black" points="257.2,-367.68 250.43,-359.54 250.65,-370.13 257.2,-367.68"/>
</g>
<!-- 4&#45;&gt;3 -->
<g id="edge14" class="edge">
<title>4&#45;&gt;3</title>
<path fill="none" stroke="black" d="M353.44,-434.61C355.53,-429.69 357.46,-424.24 358.52,-419 368.62,-369.35 369.9,-354.37 358.52,-305 357.83,-301.97 356.85,-298.9 355.7,-295.9"/>
<polygon fill="black" stroke="black" points="358.93,-294.54 351.64,-286.84 352.54,-297.4 358.93,-294.54"/>
</g>
<!-- 10 -->
<g id="node11" class="node">
<title>10</title>
<ellipse fill="#f8f8f8" stroke="gray" stroke-width="0.62" cx="550.52" cy="-339" rx="27" ry="18"/>
<text text-anchor="middle" x="550.52" y="-335.3" font-family="Helvetica,sans-Serif" font-size="14.00" fill="gray">linq</text>
</g>
<!-- 4&#45;&gt;10 -->
<g id="edge15" class="edge">
<title>4&#45;&gt;10</title>
<path fill="none" stroke="black" d="M372.28,-449.49C413.94,-445.24 490.06,-435.44 511.52,-419 528.06,-406.33 538.04,-384.79 543.76,-367.4"/>
<polygon fill="black" stroke="black" points="547.01,-368.74 546.5,-358.15 540.3,-366.75 547.01,-368.74"/>
</g>
<!-- 13 -->
<g id="node14" class="node">
<title>13</title>
<ellipse fill="#f8f8f8" stroke="gray" stroke-width="0.62" cx="200.52" cy="-50" rx="32.49" ry="18"/>
<text text-anchor="middle" x="200.52" y="-46.3" font-family="Helvetica,sans-Serif" font-size="14.00" fill="gray">slices</text>
</g>
<!-- 4&#45;&gt;13 -->
<g id="edge16" class="edge">
<title>4&#45;&gt;13</title>
<path fill="none" stroke="black" d="M372.41,-450.65C438.17,-447.18 598.64,-436.95 614.52,-419 648.11,-381.06 628.8,-353.61 614.52,-305 588.98,-218.02 548.57,-197.53 462.52,-169 439.52,-161.37 264.34,-174.95 244.52,-161 218.1,-142.39 207.54,-105.19 203.32,-79.23"/>
<polygon fill="black" stroke="black" points="206.79,-78.79 201.96,-69.36 199.86,-79.74 206.79,-78.79"/>
</g>
<!-- 5&#45;&gt;1 -->
<g id="edge17" class="edge">
<title>5&#45;&gt;1</title>
<path fill="none" stroke="black" d="M199.81,-434.5C208.24,-416.69 221.43,-388.8 231.31,-367.93"/>
<polygon fill="black" stroke="black" points="234.37,-369.65 235.48,-359.11 228.04,-366.66 234.37,-369.65"/>
</g>
<!-- 12 -->
<g id="node13" class="node">
<title>12</title>
<ellipse fill="#f8f8f8" stroke="gray" stroke-width="0.62" cx="117.52" cy="-50" rx="32.49" ry="18"/>
<text text-anchor="middle" x="117.52" y="-46.3" font-family="Helvetica,sans-Serif" font-size="14.00" fill="gray">maps</text>
</g>
<!-- 5&#45;&gt;12 -->
<g id="edge18" class="edge">
<title>5&#45;&gt;12</title>
<path fill="none" stroke="black" d="M172.42,-436.7C166.66,-432.87 160.11,-429.22 153.52,-427 141.18,-422.84 45.42,-428.52 36.52,-419 -55.85,-320.09 53.97,-140.72 99.52,-75.52"/>
<polygon fill="black" stroke="black" points="102.18,-77.82 105.11,-67.64 96.47,-73.77 102.18,-77.82"/>
</g>
<!-- 5&#45;&gt;13 -->
<g id="edge19" class="edge">
<title>5&#45;&gt;13</title>
<path fill="none" stroke="black" d="M172.38,-436.81C166.62,-432.98 160.08,-429.31 153.52,-427 135.84,-420.77 82.14,-432.87 69.52,-419 18.69,-363.1 46.21,-320.87 69.52,-249 83.07,-207.23 91.23,-193.73 127.52,-169 139.28,-160.99 147.91,-170.48 158.52,-161 182.1,-139.93 192.52,-104.16 197.08,-79.15"/>
<polygon fill="black" stroke="black" points="200.52,-79.77 198.63,-69.34 193.61,-78.67 200.52,-79.77"/>
</g>
<!-- 6&#45;&gt;1 -->
<g id="edge20" class="edge">
<title>6&#45;&gt;1</title>
<path fill="none" stroke="black" d="M267.19,-434.01C262.98,-416.56 256.53,-389.79 251.58,-369.27"/>
<polygon fill="black" stroke="black" points="255.04,-368.69 249.3,-359.79 248.24,-370.34 255.04,-368.69"/>
</g>
<!-- 8 -->
<g id="node9" class="node">
<title>8</title>
<ellipse fill="white" stroke="black" stroke-width="3" cx="322.52" cy="-339" rx="27" ry="18"/>
<text text-anchor="middle" x="322.52" y="-335.3" font-family="Helvetica,sans-Serif" font-size="14.00">trie</text>
</g>
<!-- 6&#45;&gt;8 -->
<g id="edge21" class="edge">
<title>6&#45;&gt;8</title>
<path fill="none" stroke="black" d="M279.49,-434.5C287.61,-416.66 300.33,-388.73 309.84,-367.85"/>
<polygon fill="black" stroke="black" points="313.03,-369.31 313.98,-358.75 306.65,-366.4 313.03,-369.31"/>
</g>
<!-- 11 -->
<g id="node12" class="node">
<title>11</title>
<ellipse fill="#f8f8f8" stroke="gray" stroke-width="0.62" cx="455.52" cy="-339" rx="44.39" ry="18"/>
<text text-anchor="middle" x="455.52" y="-335.3" font-family="Helvetica,sans-Serif" font-size="14.00" fill="gray">go&#45;isatty</text>
</g>
<!-- 6&#45;&gt;11 -->
<g id="edge22" class="edge">
<title>6&#45;&gt;11</title>
<path fill="none" stroke="black" d="M288.98,-437.6C294.86,-433.49 301.67,-429.47 308.52,-427 343.4,-414.46 358.88,-436.54 391.52,-419 413.46,-407.21 430.66,-384.42 441.68,-366.34"/>
<polygon fill="black" stroke="black" points="444.57,-368.33 446.54,-357.92 438.51,-364.83 444.57,-368.33"/>
</g>
<!-- 6&#45;&gt;12 -->
<g id="edge23" class="edge">
<title>6&#45;&gt;12</title>
<path fill="none" stroke="black" d="M254.12,-437.43C248.25,-433.31 241.43,-429.32 234.52,-427 219.23,-421.85 100.62,-430.72 89.52,-419 -1.01,-323.34 71.9,-144.04 104.15,-77.09"/>
<polygon fill="black" stroke="black" points="107.17,-78.86 108.45,-68.35 100.89,-75.77 107.17,-78.86"/>
</g>
<!-- 6&#45;&gt;13 -->
<g id="edge24" class="edge">
<title>6&#45;&gt;13</title>
<path fill="none" stroke="black" d="M288.89,-437.32C294.76,-433.2 301.59,-429.23 308.52,-427 323.39,-422.22 578.64,-430.2 589.52,-419 624.84,-382.67 613.12,-349.84 589.52,-305 539.8,-210.53 492.59,-203.4 391.52,-169 376.04,-163.73 257.82,-170.54 244.52,-161 218.27,-142.16 207.67,-105.01 203.39,-79.12"/>
<polygon fill="black" stroke="black" points="206.87,-78.71 202.01,-69.29 199.94,-79.68 206.87,-78.71"/>
</g>
<!-- 7&#45;&gt;12 -->
<g id="edge25" class="edge">
<title>7&#45;&gt;12</title>
<path fill="none" stroke="black" d="M254.17,-193.52C226.75,-191.58 185.62,-184.55 159.52,-161 136.05,-139.82 125.61,-104.07 121.02,-79.1"/>
<polygon fill="black" stroke="black" points="124.49,-78.62 119.45,-69.31 117.58,-79.73 124.49,-78.62"/>
</g>
<!-- 8&#45;&gt;3 -->
<g id="edge26" class="edge">
<title>8&#45;&gt;3</title>
<path fill="none" stroke="black" d="M327.16,-319.97C328.95,-313.01 331.05,-304.85 333.04,-297.1"/>
<polygon fill="black" stroke="black" points="336.36,-298.23 335.47,-287.67 329.58,-296.49 336.36,-298.23"/>
</g>
<!-- 8&#45;&gt;7 -->
<g id="edge27" class="edge">
<title>8&#45;&gt;7</title>
<path fill="none" stroke="black" d="M310.96,-321.62C304.43,-311.54 296.76,-298.08 292.52,-285 286.29,-265.77 283.81,-243.12 282.88,-225.48"/>
<polygon fill="black" stroke="black" points="286.38,-225.55 282.51,-215.69 279.39,-225.81 286.38,-225.55"/>
</g>
<!-- 8&#45;&gt;12 -->
<g id="edge28" class="edge">
<title>8&#45;&gt;12</title>
<path fill="none" stroke="black" d="M307.17,-323.06C300.93,-317.22 293.55,-310.6 286.52,-305 274.28,-295.24 268.95,-295.71 257.52,-285 206.26,-236.97 194.23,-222.07 159.52,-161 144.47,-134.51 132.71,-101.59 125.51,-78.7"/>
<polygon fill="black" stroke="black" points="128.87,-77.72 122.61,-69.18 122.18,-79.76 128.87,-77.72"/>
</g>
<!-- 8&#45;&gt;13 -->
<g id="edge29" class="edge">
<title>8&#45;&gt;13</title>
<path fill="none" stroke="black" d="M308.65,-322.47C299.94,-312.26 288.82,-298.37 280.52,-285 238.43,-217.2 215.28,-124.48 205.77,-78.78"/>
<polygon fill="black" stroke="black" points="209.24,-78.31 203.84,-69.19 202.38,-79.69 209.24,-78.31"/>
</g>
<!-- 9&#45;&gt;1 -->
<g id="edge30" class="edge">
<title>9&#45;&gt;1</title>
<path fill="none" stroke="black" d="M127.74,-437.29C133.13,-433.37 139.3,-429.53 145.52,-427 167.18,-418.19 178.14,-432.07 197.52,-419 215.38,-406.95 227.48,-385.65 234.92,-368.19"/>
<polygon fill="black" stroke="black" points="237.99,-369.94 238.41,-359.35 231.48,-367.37 237.99,-369.94"/>
</g>
<!-- 9&#45;&gt;2 -->
<g id="edge31" class="edge">
<title>9&#45;&gt;2</title>
<path fill="none" stroke="black" d="M115.02,-434.01C119.39,-416.56 126.08,-389.79 131.21,-369.27"/>
<polygon fill="black" stroke="black" points="134.55,-370.34 133.58,-359.79 127.76,-368.64 134.55,-370.34"/>
</g>
<!-- 9&#45;&gt;7 -->
<g id="edge32" class="edge">
<title>9&#45;&gt;7</title>
<path fill="none" stroke="black" d="M128.2,-437.27C133.5,-433.44 139.52,-429.66 145.52,-427 160.91,-420.19 170.86,-431.13 182.52,-419 218.18,-381.92 182.33,-352.31 202.52,-305 204.52,-300.33 240.39,-252.14 263.41,-221.42"/>
<polygon fill="black" stroke="black" points="265.99,-223.83 269.19,-213.73 260.39,-219.63 265.99,-223.83"/>
</g>
</g>
</svg>
