<?xml version="1.0" encoding="UTF-8" standalone="no"?>
<!DOCTYPE svg PUBLIC "-//W3C//DTD SVG 1.1//EN"
 "http://www.w3.org/Graphics/SVG/1.1/DTD/svg11.dtd">
<!-- Generated by graphviz version 7.0.0 (20221023.0053)
 -->
<!-- Title: G Pages: 1 -->
<svg width="338pt" height="346pt"
 viewBox="0.00 0.00 338.00 346.00" xmlns="http://www.w3.org/2000/svg" xmlns:xlink="http://www.w3.org/1999/xlink">
<g id="graph0" class="graph" transform="scale(1 1) rotate(0) translate(4 342)">
<title>G</title>
<polygon fill="white" stroke="none" points="-4,4 -4,-342 334,-342 334,4 -4,4"/>
<g id="clust1" class="cluster">
<title>cluster0_0</title>
<polygon fill="#ffffff" stroke="black" points="8,-8 8,-330 322,-330 322,-8 8,-8"/>
<text text-anchor="middle" x="165" y="-314.8" font-family="Times,serif" font-size="14.00">./internal/</text>
</g>
<g id="clust2" class="cluster">
<title>cluster3_0</title>
<polygon fill="#f0f0f0" stroke="black" points="84,-224 84,-299 314,-299 314,-224 84,-224"/>
<text text-anchor="middle" x="199" y="-283.8" font-family="Times,serif" font-size="14.00">render/</text>
</g>
<!-- 0 -->
<g id="node1" class="node">
<title>0</title>
<ellipse fill="white" stroke="black" stroke-width="3" cx="157" cy="-178" rx="33.29" ry="18"/>
<text text-anchor="middle" x="157" y="-174.3" font-family="Helvetica,sans-Serif" font-size="14.00">graph</text>
</g>
<!-- 6 -->
<g id="node7" class="node">
<title>6</title>
<ellipse fill="white" stroke="black" stroke-width="3" cx="157" cy="-34" rx="27" ry="18"/>
<text text-anchor="middle" x="157" y="-30.3" font-family="Helvetica,sans-Serif" font-size="14.00">set</text>
</g>
<!-- 0&#45;&gt;6 -->
<g id="edge1" class="edge">
<title>0&#45;&gt;6</title>
<path fill="none" stroke="black" d="M157,-158.73C157,-134.87 157,-92.81 157,-64.44"/>
<polygon fill="black" stroke="black" points="160.5,-64.72 157,-54.72 153.5,-64.72 160.5,-64.72"/>
</g>
<!-- 1 -->
<g id="node2" class="node">
<title>1</title>
<ellipse fill="white" stroke="black" stroke-width="3" cx="51" cy="-178" rx="35.19" ry="18"/>
<text text-anchor="middle" x="51" y="-174.3" font-family="Helvetica,sans-Serif" font-size="14.00">match</text>
</g>
<!-- 1&#45;&gt;6 -->
<g id="edge2" class="edge">
<title>1&#45;&gt;6</title>
<path fill="none" stroke="black" d="M58.7,-159.27C67.29,-140.55 82.32,-110.67 100,-88 108.87,-76.63 120.25,-65.53 130.51,-56.45"/>
<polygon fill="black" stroke="black" points="132.69,-59.19 138,-50.02 128.13,-53.88 132.69,-59.19"/>
</g>
<!-- 2 -->
<g id="node3" class="node">
<title>2</title>
<ellipse fill="white" stroke="black" stroke-width="3" cx="235" cy="-106" rx="38.99" ry="18"/>
<text text-anchor="middle" x="235" y="-102.3" font-family="Helvetica,sans-Serif" font-size="14.00">pathutil</text>
</g>
<!-- 2&#45;&gt;6 -->
<g id="edge3" class="edge">
<title>2&#45;&gt;6</title>
<path fill="none" stroke="black" d="M216.91,-88.76C206.44,-79.37 193.11,-67.41 181.69,-57.15"/>
<polygon fill="black" stroke="black" points="184.31,-54.8 174.53,-50.73 179.63,-60.01 184.31,-54.8"/>
</g>
<!-- 3 -->
<g id="node4" class="node">
<title>3</title>
<ellipse fill="white" stroke="black" stroke-width="3" cx="279" cy="-250" rx="27" ry="18"/>
<text text-anchor="middle" x="279" y="-246.3" font-family="Helvetica,sans-Serif" font-size="14.00">dot</text>
</g>
<!-- 3&#45;&gt;0 -->
<g id="edge4" class="edge">
<title>3&#45;&gt;0</title>
<path fill="none" stroke="black" d="M260.61,-235.57C255.05,-231.69 248.86,-227.55 243,-224 226.68,-214.12 207.98,-204.18 192.19,-196.16"/>
<polygon fill="black" stroke="black" points="194.15,-193.23 183.65,-191.87 191.01,-199.48 194.15,-193.23"/>
</g>
<!-- 3&#45;&gt;2 -->
<g id="edge5" class="edge">
<title>3&#45;&gt;2</title>
<path fill="none" stroke="black" d="M279.99,-230.7C280.39,-212.3 279.35,-183.37 271,-160 267.61,-150.51 262.11,-141.11 256.43,-132.91"/>
<polygon fill="black" stroke="black" points="259.43,-131.09 250.67,-125.13 253.8,-135.25 259.43,-131.09"/>
</g>
<!-- 4 -->
<g id="node5" class="node">
<title>4</title>
<ellipse fill="white" stroke="black" stroke-width="3" cx="126" cy="-250" rx="34.39" ry="18"/>
<text text-anchor="middle" x="126" y="-246.3" font-family="Helvetica,sans-Serif" font-size="14.00">edges</text>
</g>
<!-- 4&#45;&gt;0 -->
<g id="edge6" class="edge">
<title>4&#45;&gt;0</title>
<path fill="none" stroke="black" d="M133.82,-231.34C137.07,-224.01 140.91,-215.34 144.52,-207.18"/>
<polygon fill="black" stroke="black" points="147.61,-208.85 148.46,-198.29 141.21,-206.01 147.61,-208.85"/>
</g>
<!-- 5 -->
<g id="node6" class="node">
<title>5</title>
<ellipse fill="white" stroke="black" stroke-width="3" cx="206" cy="-250" rx="27.9" ry="18"/>
<text text-anchor="middle" x="206" y="-246.3" font-family="Helvetica,sans-Serif" font-size="14.00">tsort</text>
</g>
<!-- 5&#45;&gt;0 -->
<g id="edge7" class="edge">
<title>5&#45;&gt;0</title>
<path fill="none" stroke="black" d="M194.39,-232.41C188.73,-224.34 181.8,-214.43 175.45,-205.35"/>
<polygon fill="black" stroke="black" points="178.34,-203.38 169.74,-197.2 172.6,-207.4 178.34,-203.38"/>
</g>
<!-- 7 -->
<g id="node8" class="node">
<title>7</title>
<ellipse fill="white" stroke="black" stroke-width="3" cx="235" cy="-178" rx="27" ry="18"/>
<text text-anchor="middle" x="235" y="-174.3" font-family="Helvetica,sans-Serif" font-size="14.00">trie</text>
</g>
<!-- 5&#45;&gt;7 -->
<g id="edge8" class="edge">
<title>5&#45;&gt;7</title>
<path fill="none" stroke="black" d="M213.32,-231.34C216.4,-223.9 220.06,-215.07 223.48,-206.8"/>
<polygon fill="black" stroke="black" points="226.61,-208.39 227.21,-197.81 220.14,-205.71 226.61,-208.39"/>
</g>
<!-- 7&#45;&gt;2 -->
<g id="edge9" class="edge">
<title>7&#45;&gt;2</title>
<path fill="none" stroke="black" d="M235,-158.61C235,-151.8 235,-143.91 235,-136.37"/>
<polygon fill="black" stroke="black" points="238.5,-136.54 235,-126.54 231.5,-136.54 238.5,-136.54"/>
</g>
<!-- 7&#45;&gt;6 -->
<g id="edge10" class="edge">
<title>7&#45;&gt;6</title>
<path fill="none" stroke="black" d="M218.88,-162.58C208.56,-152.61 195.54,-138.56 187,-124 176.1,-105.43 168.47,-82.33 163.62,-64.32"/>
<polygon fill="black" stroke="black" points="167.06,-63.62 161.21,-54.78 160.27,-65.34 167.06,-63.62"/>
</g>
<!-- 8 -->
<g id="node9" class="node">
<title>8</title>
<ellipse fill="white" stroke="black" stroke-width="3" cx="45" cy="-250" rx="28.7" ry="18"/>
<text text-anchor="middle" x="45" y="-246.3" font-family="Helvetica,sans-Serif" font-size="14.00">walk</text>
</g>
<!-- 8&#45;&gt;0 -->
<g id="edge11" class="edge">
<title>8&#45;&gt;0</title>
<path fill="none" stroke="black" d="M64.04,-234.93C69.16,-231.27 74.73,-227.41 80,-224 93.98,-214.95 109.81,-205.56 123.46,-197.71"/>
<polygon fill="black" stroke="black" points="125.14,-200.78 132.1,-192.79 121.68,-194.7 125.14,-200.78"/>
</g>
<!-- 8&#45;&gt;1 -->
<g id="edge12" class="edge">
<title>8&#45;&gt;1</title>
<path fill="none" stroke="black" d="M46.58,-230.61C47.16,-223.8 47.84,-215.91 48.48,-208.37"/>
<polygon fill="black" stroke="black" points="51.96,-208.8 49.33,-198.53 44.98,-208.2 51.96,-208.8"/>
</g>
<!-- 8&#45;&gt;6 -->
<g id="edge13" class="edge">
<title>8&#45;&gt;6</title>
<path fill="none" stroke="black" d="M62.09,-234.14C72.69,-224.19 85.97,-210.34 95,-196 121.77,-153.49 140.07,-97.57 149.52,-64.06"/>
<polygon fill="black" stroke="black" points="152.82,-65.23 152.09,-54.66 146.07,-63.39 152.82,-65.23"/>
</g>
</g>
</svg>
